# xmcd CD database file
#
# Track frame offsets:
#	150
#	14734
#	22187
#	34545
#	44374
#	57691
#	71872
#	85584
#	101712
#	117455
#
# Disc length: 1843 seconds
#
# Revision: 0
# Processed by: cddbd v1.5.1PL0 Copyright (c) Steve Scherf et al.
# Submitted via: CDex 1.51
#
DISCID=8f07310a
DTITLE=GEMIX - Crimson
DYEAR=1900
DGENRE=未分類 (日本)
TTITLE0=Merry,happy Holynight!! [DDR]
TTITLE1=Spanish Child [聖剣伝説2]
TTITLE2=N.N.E [聖剣伝説2]
TTITLE3=Romancing heroes [ロマサガ2]
TTITLE4=Last battle [FF4]
TTITLE5=混沌暗景 [FF4]
TTITLE6=ロマンシング・弦 [ロマサガ2]
TTITLE7=最後の民族 [FF4]
TTITLE8=ちんどん屋の息子 [聖剣伝説2]
TTITLE9=独りだけのクリスマス [DDR]
EXTD=
EXTT0=
EXTT1=
EXTT2=
EXTT3=
EXTT4=
EXTT5=
EXTT6=
EXTT7=
EXTT8=
EXTT9=
PLAYORDER=
